<svg xmlns="http://www.w3.org/2000/svg" width="71" height="142" fill="none"><path opacity=".5" fill-rule="evenodd" clip-rule="evenodd" d="M-4 4a4 4 0 0 1 4-4h39a4 4 0 0 1 4 4v9a4 4 0 0 1-4 4H0a4 4 0 0 1-4-4V4Zm-15 50a4 4 0 0 1 4-4h54a4 4 0 0 1 4 4v9a4 4 0 0 1-4 4h-54a4 4 0 0 1-4-4v-9Zm4 46a4 4 0 0 0-4 4v9a4 4 0 0 0 4 4h54a4 4 0 0 0 4-4v-9a4 4 0 0 0-4-4h-54Zm-21-71a4 4 0 0 1 4-4h54a4 4 0 0 1 4 4v9a4 4 0 0 1-4 4h-54a4 4 0 0 1-4-4v-9Zm4 46a4 4 0 0 0-4 4v9a4 4 0 0 0 4 4h54a4 4 0 0 0 4-4v-9a4 4 0 0 0-4-4h-54Zm-4 54a4 4 0 0 1 4-4h54a4 4 0 0 1 4 4v9a4 4 0 0 1-4 4h-54a4 4 0 0 1-4-4v-9ZM38 25a4 4 0 0 0-4 4v9a4 4 0 0 0 4 4h25a4 4 0 0 0 4-4v-9a4 4 0 0 0-4-4H38Zm-4 54a4 4 0 0 1 4-4h25a4 4 0 0 1 4 4v9a4 4 0 0 1-4 4H38a4 4 0 0 1-4-4v-9Zm4 46a4 4 0 0 0-4 4v9a4 4 0 0 0 4 4h29a4 4 0 0 0 4-4v-9a4 4 0 0 0-4-4H38Z" fill="#E3E9F0"/></svg>